<svg xmlns="http://www.w3.org/2000/svg" xmlns:xlink="http://www.w3.org/1999/xlink" viewBox="0 0 1200 172" width="1200" height="172" role="img" aria-label="Project key figures" font-family="'Segoe UI',Inter,-apple-system,'Helvetica Neue',Arial,sans-serif">
<defs><filter id="glow" x="-60%" y="-60%" width="220%" height="220%"><feGaussianBlur stdDeviation="6" result="b"/><feMerge><feMergeNode in="b"/><feMergeNode in="SourceGraphic"/></feMerge></filter><filter id="glowS" x="-60%" y="-60%" width="220%" height="220%"><feGaussianBlur stdDeviation="2.4" result="b"/><feMerge><feMergeNode in="b"/><feMergeNode in="SourceGraphic"/></feMerge></filter><filter id="soft" x="-40%" y="-40%" width="180%" height="180%"><feGaussianBlur stdDeviation="18"/></filter><linearGradient id="edge" x1="0" y1="0" x2="1" y2="1"><stop offset="0%" stop-color="#22D3EE" stop-opacity=".55"/><stop offset="50%" stop-color="#A78BFA" stop-opacity=".35"/><stop offset="100%" stop-color="#F472B6" stop-opacity=".55"/></linearGradient><linearGradient id="panelG" x1="0" y1="0" x2="0" y2="1"><stop offset="0%" stop-color="#101a35"/><stop offset="100%" stop-color="#080D1C"/></linearGradient><linearGradient id="neon" x1="0" y1="0" x2="1" y2="0"><stop offset="0%" stop-color="#22D3EE"/><stop offset="55%" stop-color="#A78BFA"/><stop offset="100%" stop-color="#F472B6"/></linearGradient></defs>
<rect x="0" y="0" width="1200" height="172" rx="18" fill="#04060E"/><rect x="0.75" y="0.75" width="1198.50" height="170.50" rx="18" fill="none" stroke="url(#edge)" stroke-width="1.5"/>
<g filter="url(#soft)"><circle cx="120" cy="90" r="180" fill="#312E81" opacity="0.30"/><circle cx="1080" cy="90" r="180" fill="#0E7490" opacity="0.24"/><circle cx="600" cy="10" r="220" fill="#831843" opacity="0.16"/></g><g><circle cx="287.7" cy="93.3" r="0.90" fill="#E9D5FF" opacity="0.70"><animate attributeName="opacity" values="0.70;1.00;0.70" dur="4.3s" repeatCount="indefinite"/></circle><circle cx="82.1" cy="6.2" r="1.00" fill="#CFE3FF" opacity="0.28"></circle><circle cx="232.6" cy="121.6" r="1.30" fill="#E9D5FF" opacity="0.65"></circle><circle cx="477.4" cy="145.2" r="0.70" fill="#A5F3FC" opacity="0.52"></circle><circle cx="468.8" cy="6.5" r="0.60" fill="#A5F3FC" opacity="0.22"></circle><circle cx="55.0" cy="131.9" r="0.90" fill="#E9D5FF" opacity="0.42"></circle><circle cx="855.2" cy="155.1" r="1.00" fill="#A5F3FC" opacity="0.58"></circle><circle cx="534.0" cy="157.4" r="0.90" fill="#CFE3FF" opacity="0.18"></circle><circle cx="593.9" cy="46.3" r="1.60" fill="#BFD6FF" opacity="0.39"></circle><circle cx="506.0" cy="140.7" r="1.30" fill="#A5F3FC" opacity="0.34"><animate attributeName="opacity" values="0.34;0.89;0.34" dur="3.5s" repeatCount="indefinite"/></circle><circle cx="281.0" cy="59.2" r="0.60" fill="#A5F3FC" opacity="0.66"></circle><circle cx="804.2" cy="30.7" r="0.90" fill="#A5F3FC" opacity="0.73"></circle><circle cx="682.4" cy="121.1" r="0.70" fill="#A5F3FC" opacity="0.52"></circle><circle cx="322.4" cy="24.4" r="1.00" fill="#E9D5FF" opacity="0.66"></circle><circle cx="109.5" cy="135.3" r="1.00" fill="#FFFFFF" opacity="0.69"></circle><circle cx="354.3" cy="130.1" r="0.60" fill="#A5F3FC" opacity="0.15"></circle><circle cx="911.9" cy="66.0" r="1.30" fill="#BFD6FF" opacity="0.33"></circle><circle cx="606.5" cy="167.8" r="0.90" fill="#FFFFFF" opacity="0.12"></circle><circle cx="718.9" cy="9.1" r="0.70" fill="#BFD6FF" opacity="0.73"><animate attributeName="opacity" values="0.73;1.00;0.73" dur="4.2s" repeatCount="indefinite"/></circle><circle cx="190.2" cy="11.0" r="0.90" fill="#CFE3FF" opacity="0.32"></circle><circle cx="1072.8" cy="66.0" r="1.00" fill="#E9D5FF" opacity="0.67"></circle><circle cx="771.5" cy="101.7" r="1.30" fill="#A5F3FC" opacity="0.18"></circle><circle cx="327.4" cy="108.0" r="1.60" fill="#BFD6FF" opacity="0.27"></circle><circle cx="525.4" cy="46.4" r="0.90" fill="#FFFFFF" opacity="0.47"></circle><circle cx="943.8" cy="165.9" r="0.90" fill="#A5F3FC" opacity="0.13"></circle><circle cx="706.3" cy="25.9" r="1.60" fill="#E9D5FF" opacity="0.52"></circle><circle cx="424.7" cy="154.4" r="1.30" fill="#E9D5FF" opacity="0.57"></circle><circle cx="30.4" cy="13.9" r="1.60" fill="#BFD6FF" opacity="0.13"><animate attributeName="opacity" values="0.13;0.68;0.13" dur="3.0s" repeatCount="indefinite"/></circle><circle cx="547.9" cy="101.2" r="0.90" fill="#CFE3FF" opacity="0.23"></circle><circle cx="376.7" cy="64.5" r="1.30" fill="#E9D5FF" opacity="0.29"></circle><circle cx="129.0" cy="137.3" r="1.30" fill="#CFE3FF" opacity="0.55"></circle><circle cx="373.5" cy="40.5" r="0.90" fill="#CFE3FF" opacity="0.27"></circle><circle cx="812.3" cy="110.5" r="0.60" fill="#BFD6FF" opacity="0.18"></circle><circle cx="1135.4" cy="114.7" r="0.70" fill="#CFE3FF" opacity="0.40"></circle><circle cx="99.3" cy="125.7" r="0.70" fill="#E9D5FF" opacity="0.68"></circle><circle cx="326.6" cy="133.1" r="0.60" fill="#CFE3FF" opacity="0.45"></circle><circle cx="379.6" cy="141.1" r="1.30" fill="#BFD6FF" opacity="0.24"><animate attributeName="opacity" values="0.24;0.79;0.24" dur="3.3s" repeatCount="indefinite"/></circle><circle cx="990.9" cy="18.0" r="1.30" fill="#CFE3FF" opacity="0.34"></circle><circle cx="506.2" cy="89.0" r="0.90" fill="#E9D5FF" opacity="0.41"></circle><circle cx="350.2" cy="97.2" r="0.60" fill="#CFE3FF" opacity="0.70"></circle><circle cx="241.9" cy="82.3" r="1.30" fill="#E9D5FF" opacity="0.74"></circle><circle cx="670.2" cy="165.7" r="1.60" fill="#E9D5FF" opacity="0.26"></circle><circle cx="1001.3" cy="112.7" r="1.30" fill="#A5F3FC" opacity="0.73"></circle><circle cx="410.6" cy="41.3" r="0.60" fill="#BFD6FF" opacity="0.66"></circle><circle cx="147.0" cy="44.1" r="0.60" fill="#A5F3FC" opacity="0.69"></circle><circle cx="1105.2" cy="151.0" r="1.00" fill="#FFFFFF" opacity="0.48"><animate attributeName="opacity" values="0.48;1.00;0.48" dur="3.8s" repeatCount="indefinite"/></circle></g><rect x="16.0" y="16" width="186.3" height="140" rx="14" fill="url(#panelG)" stroke="#1B2848" stroke-width="1.2" opacity="1.0"/><rect x="16.0" y="16" width="186.3" height="3" rx="1.5" fill="#22D3EE"/><rect x="16.0" y="16" width="186.3" height="140" rx="14" fill="#22D3EE" fill-opacity=".05"/><text x="109.16666666666667" y="78" font-size="33" fill="#22D3EE" font-weight="800" text-anchor="middle" font-family="'Segoe UI',Inter,-apple-system,'Helvetica Neue',Arial,sans-serif" letter-spacing="-0.5" opacity="1" filter="url(#glowS)">6,010</text><text x="109.16666666666667" y="104" font-size="10.5" fill="#E8EFFB" font-weight="700" text-anchor="middle" font-family="ui-monospace,'SFMono-Regular','JetBrains Mono','DejaVu Sans Mono',monospace" letter-spacing="1.3" opacity="1.0">PAIRED CUTOUTS</text><text x="109.16666666666667" y="128" font-size="9.5" fill="#5A6B8C" font-weight="400" text-anchor="middle" font-family="'Segoe UI',Inter,-apple-system,'Helvetica Neue',Arial,sans-serif" letter-spacing="0" opacity="1.0">radio + optical, 1:1 matched</text><circle cx="109.2" cy="140" r="2.5" fill="#22D3EE"><animate attributeName="opacity" values=".25;1;.25" dur="3s" begin="0.0s" repeatCount="indefinite"/></circle><rect x="212.3" y="16" width="186.3" height="140" rx="14" fill="url(#panelG)" stroke="#1B2848" stroke-width="1.2" opacity="1.0"/><rect x="212.3" y="16" width="186.3" height="3" rx="1.5" fill="#A78BFA"/><rect x="212.3" y="16" width="186.3" height="140" rx="14" fill="#A78BFA" fill-opacity=".05"/><text x="305.5" y="78" font-size="33" fill="#A78BFA" font-weight="800" text-anchor="middle" font-family="'Segoe UI',Inter,-apple-system,'Helvetica Neue',Arial,sans-serif" letter-spacing="-0.5" opacity="1" filter="url(#glowS)">18.84</text><text x="305.5" y="104" font-size="10.5" fill="#E8EFFB" font-weight="700" text-anchor="middle" font-family="ui-monospace,'SFMono-Regular','JetBrains Mono','DejaVu Sans Mono',monospace" letter-spacing="1.3" opacity="1.0">GIGABYTES</text><text x="305.5" y="128" font-size="9.5" fill="#5A6B8C" font-weight="400" text-anchor="middle" font-family="'Segoe UI',Inter,-apple-system,'Helvetica Neue',Arial,sans-serif" letter-spacing="0" opacity="1.0">built from survey APIs</text><circle cx="305.5" cy="140" r="2.5" fill="#A78BFA"><animate attributeName="opacity" values=".25;1;.25" dur="3s" begin="0.4s" repeatCount="indefinite"/></circle><rect x="408.7" y="16" width="186.3" height="140" rx="14" fill="url(#panelG)" stroke="#1B2848" stroke-width="1.2" opacity="1.0"/><rect x="408.7" y="16" width="186.3" height="3" rx="1.5" fill="#34D399"/><rect x="408.7" y="16" width="186.3" height="140" rx="14" fill="#34D399" fill-opacity=".05"/><text x="501.83333333333337" y="78" font-size="33" fill="#34D399" font-weight="800" text-anchor="middle" font-family="'Segoe UI',Inter,-apple-system,'Helvetica Neue',Arial,sans-serif" letter-spacing="-0.5" opacity="1" filter="url(#glowS)">6</text><text x="501.83333333333337" y="104" font-size="10.5" fill="#E8EFFB" font-weight="700" text-anchor="middle" font-family="ui-monospace,'SFMono-Regular','JetBrains Mono','DejaVu Sans Mono',monospace" letter-spacing="1.3" opacity="1.0">BALANCED CLASSES</text><text x="501.83333333333337" y="128" font-size="9.5" fill="#5A6B8C" font-weight="400" text-anchor="middle" font-family="'Segoe UI',Inter,-apple-system,'Helvetica Neue',Arial,sans-serif" letter-spacing="0" opacity="1.0">16.6% ± 0.1 each</text><circle cx="501.8" cy="140" r="2.5" fill="#34D399"><animate attributeName="opacity" values=".25;1;.25" dur="3s" begin="0.8s" repeatCount="indefinite"/></circle><rect x="605.0" y="16" width="186.3" height="140" rx="14" fill="url(#panelG)" stroke="#1B2848" stroke-width="1.2" opacity="1.0"/><rect x="605.0" y="16" width="186.3" height="3" rx="1.5" fill="#FBBF24"/><rect x="605.0" y="16" width="186.3" height="140" rx="14" fill="#FBBF24" fill-opacity=".05"/><text x="698.1666666666666" y="78" font-size="33" fill="#FBBF24" font-weight="800" text-anchor="middle" font-family="'Segoe UI',Inter,-apple-system,'Helvetica Neue',Arial,sans-serif" letter-spacing="-0.5" opacity="1" filter="url(#glowS)">5</text><text x="698.1666666666666" y="104" font-size="10.5" fill="#E8EFFB" font-weight="700" text-anchor="middle" font-family="ui-monospace,'SFMono-Regular','JetBrains Mono','DejaVu Sans Mono',monospace" letter-spacing="1.3" opacity="1.0">ARCHITECTURES</text><text x="698.1666666666666" y="128" font-size="9.5" fill="#5A6B8C" font-weight="400" text-anchor="middle" font-family="'Segoe UI',Inter,-apple-system,'Helvetica Neue',Arial,sans-serif" letter-spacing="0" opacity="1.0">4 backbones + ensemble</text><circle cx="698.2" cy="140" r="2.5" fill="#FBBF24"><animate attributeName="opacity" values=".25;1;.25" dur="3s" begin="1.2s" repeatCount="indefinite"/></circle><rect x="801.3" y="16" width="186.3" height="140" rx="14" fill="url(#panelG)" stroke="#1B2848" stroke-width="1.2" opacity="1.0"/><rect x="801.3" y="16" width="186.3" height="3" rx="1.5" fill="#F472B6"/><rect x="801.3" y="16" width="186.3" height="140" rx="14" fill="#F472B6" fill-opacity=".05"/><text x="894.5" y="78" font-size="33" fill="#F472B6" font-weight="800" text-anchor="middle" font-family="'Segoe UI',Inter,-apple-system,'Helvetica Neue',Arial,sans-serif" letter-spacing="-0.5" opacity="1" filter="url(#glowS)">97.60%</text><text x="894.5" y="104" font-size="10.5" fill="#E8EFFB" font-weight="700" text-anchor="middle" font-family="ui-monospace,'SFMono-Regular','JetBrains Mono','DejaVu Sans Mono',monospace" letter-spacing="1.3" opacity="1.0">TOP ACCURACY</text><text x="894.5" y="128" font-size="9.5" fill="#5A6B8C" font-weight="400" text-anchor="middle" font-family="'Segoe UI',Inter,-apple-system,'Helvetica Neue',Arial,sans-serif" letter-spacing="0" opacity="1.0">ensemble, ±0.31 CI</text><circle cx="894.5" cy="140" r="2.5" fill="#F472B6"><animate attributeName="opacity" values=".25;1;.25" dur="3s" begin="1.6s" repeatCount="indefinite"/></circle><rect x="997.7" y="16" width="186.3" height="140" rx="14" fill="url(#panelG)" stroke="#1B2848" stroke-width="1.2" opacity="1.0"/><rect x="997.7" y="16" width="186.3" height="3" rx="1.5" fill="#60A5FA"/><rect x="997.7" y="16" width="186.3" height="140" rx="14" fill="#60A5FA" fill-opacity=".05"/><text x="1090.8333333333335" y="78" font-size="33" fill="#60A5FA" font-weight="800" text-anchor="middle" font-family="'Segoe UI',Inter,-apple-system,'Helvetica Neue',Arial,sans-serif" letter-spacing="-0.5" opacity="1" filter="url(#glowS)">10</text><text x="1090.8333333333335" y="104" font-size="10.5" fill="#E8EFFB" font-weight="700" text-anchor="middle" font-family="ui-monospace,'SFMono-Regular','JetBrains Mono','DejaVu Sans Mono',monospace" letter-spacing="1.3" opacity="1.0">SEEDED RUNS</text><text x="1090.8333333333335" y="128" font-size="9.5" fill="#5A6B8C" font-weight="400" text-anchor="middle" font-family="'Segoe UI',Inter,-apple-system,'Helvetica Neue',Arial,sans-serif" letter-spacing="0" opacity="1.0">95% CI · t-test · ANOVA</text><circle cx="1090.8" cy="140" r="2.5" fill="#60A5FA"><animate attributeName="opacity" values=".25;1;.25" dur="3s" begin="2.0s" repeatCount="indefinite"/></circle></svg>